{"title":"The Fosters S05E09 1080P WEB-DL DD5 1 H 264","magnet":"magnet:?xt=urn:btih:4f0f614311bdc2f7ea047f05e94bfbdab4c421de&dn=The+Fosters+S05E09+1080P+WEB-DL+DD5+1+H+264&tr=udp%3A%2F%2Ftracker.leechers-paradise.org%3A6969&tr=udp%3A%2F%2Fzer0day.ch%3A1337&tr=udp%3A%2F%2Fopen.demonii.com%3A1337&tr=udp%3A%2F%2Ftracker.coppersurfer.tk%3A6969&tr=udp%3A%2F%2Fexodus.desync.com%3A6969","uploader":"jmanwf","categoryP":"video","categoryS":"hd___tv_shows","size":"1787863432","seeders":"0","leechers":"0","description":"Format                                   : Matroska\r\nFormat version                           : Version 4 / Version 2\r\nFile size                                : 1.67 GiB\r\nDuration                                 : 42 min 5 s\r\nOverall bit rate                         : 5 664 kb/s\r\n\r\nAudio #1\r\nID                                       : 1\r\nFormat                                   : AAC\r\nFormat/Info                              : Advanced Audio Codec\r\nFormat profile                           : LC\r\nCodec ID                                 : A_AAC\r\nDuration                                 : 42 min 5 s\r\nBit rate                                 : 127 kb/s\r\nChannel(s)                               : 2 channels\r\nChannel positions                        : Front: L R\r\nSampling rate                            : 48.0 kHz\r\nFrame rate                               : 46.875 FPS (1024 spf)\r\nCompression mode                         : Lossy\r\nDelay relative to video                  : -42 ms\r\nStream size                              : 38.3 MiB (2%)\r\nLanguage                                 : English\r\nDefault                                  : Yes\r\nForced                                   : No\r\n\r\nAudio #2\r\nID                                       : 2\r\nFormat                                   : AC-3\r\nFormat/Info                              : Audio Coding 3\r\nFormat settings, Endianness              : Big\r\nCodec ID                                 : A_AC3\r\nDuration                                 : 42 min 5 s\r\nBit rate mode                            : Constant\r\nBit rate                                 : 384 kb/s\r\nChannel(s)                               : 6 channels\r\nChannel positions                        : Front: L C R, Side: L R, LFE\r\nSampling rate                            : 48.0 kHz\r\nFrame rate                               : 31.250 FPS (1536 spf)\r\nBit depth                                : 16 bits\r\nCompression mode                         : Lossy\r\nDelay relative to video                  : -42 ms\r\nStream size                              : 116 MiB (7%)\r\nLanguage                                 : English\r\nService kind                             : Complete Main\r\nDefault                                  : No\r\nForced                                   : No","last_updated":"2017-09-06T12:00:36.911Z","parsed":{"xt":"urn:btih:4f0f614311bdc2f7ea047f05e94bfbdab4c421de","dn":"The Fosters S05E09 1080P WEB-DL DD5 1 H 264","tr":["udp://exodus.desync.com:6969","udp://open.demonii.com:1337","udp://tracker.coppersurfer.tk:6969","udp://tracker.leechers-paradise.org:6969","udp://zer0day.ch:1337"],"infoHash":"4f0f614311bdc2f7ea047f05e94bfbdab4c421de","infoHashBuffer":{"type":"Buffer","data":[79,15,97,67,17,189,194,247,234,4,127,5,233,75,251,218,180,196,33,222]},"name":"The Fosters S05E09 1080P WEB-DL DD5 1 H 264","announce":["udp://exodus.desync.com:6969","udp://open.demonii.com:1337","udp://tracker.coppersurfer.tk:6969","udp://tracker.leechers-paradise.org:6969","udp://zer0day.ch:1337"],"urlList":[]}}